<svg width="453" height="151" fill="none" xmlns="http://www.w3.org/2000/svg"><path d="M255.608 45.082l-.4 4.153h-.2c-2.4-3.039-5.5-5.065-11.3-5.065-9.9 0-19.1 8.003-19.1 21.072 0 11.347 7.7 19.755 17.9 19.755 4.9 0 8.9-1.924 11.3-4.964h.2v2.23c0 7.192-4.2 12.055-11.9 12.055-4.5 0-8.5-1.317-11.2-2.634l-3.4 6.99c3.5 2.33 9.4 3.343 14.6 3.343 13.7 0 22-8.003 22-22.997V44.88h-8.5v.202zm-1.7 21.376c0 1.114-.1 2.533-.4 3.546-1.2 3.647-4.6 7.091-8.5 7.091-6.5 0-10.1-5.268-10.1-12.055 0-8.105 4.3-12.563 10.2-12.563 4.4 0 7.4 2.634 8.5 6.281.3.81.3 1.723.3 2.736v4.964z" fill="#00ACE1"/><path d="M182.108 29.581h16.4v31.102h2.3l12.6-15.5h11.8l-15.5 17.83 10.1 12.664h2.6l4.5 8.611h-12.5l-13.3-16.21h-2.7v16.21h-10V38.193h-3.7l-2.6-8.611z" fill="#00ACE1"/><path d="M313.108 79.121c-.1-1.62.5-3.242 1.7-4.356a6.053 6.053 0 014.5-1.621c1.7-.101 3.3.506 4.6 1.62 1.2 1.115 1.8 2.736 1.7 4.357.1 1.621-.5 3.242-1.7 4.357-1.3 1.114-2.9 1.722-4.6 1.62-1.6.102-3.3-.506-4.5-1.62-1.1-1.115-1.8-2.736-1.7-4.357zm18.6-33.938h9l1.2 5.166h.3c1.4-1.823 3.1-3.343 5.1-4.356 2.4-1.317 5.2-1.925 7.9-1.925 1.8 0 3.6.203 5.4.81 1.6.507 3.1 1.42 4.3 2.533 1.3 1.419 2.3 3.04 2.8 4.863.7 2.432 1.1 5.066 1 7.599v24.314h-10V62c0-3.14-.7-5.47-2.1-6.889-1.4-1.418-3.4-2.127-5.4-2.127-1.9 0-3.7.607-5.2 1.722a8.213 8.213 0 00-3.2 4.153v25.328h-10V53.693h-5.6l4.5-8.51zm76.411 7.071c-1-2.026-2.5-3.749-4.3-5.167a16.828 16.828 0 00-5.8-2.634c-4.7-1.216-9.6-1.013-14.2.507-2.4.81-4.7 2.127-6.6 3.85-1.9 1.823-3.4 3.95-4.4 6.483-1.1 2.837-1.7 5.977-1.6 9.017 0 2.938.5 5.876 1.5 8.61 1.8 4.965 5.7 8.916 10.7 10.638 2.8 1.013 5.8 1.419 8.8 1.419 1.8 0 3.6-.102 5.4-.507 1.6-.304 3.2-.71 4.7-1.216 1.3-.506 2.5-1.013 3.7-1.722.9-.507 1.8-1.114 2.6-1.823l-3.3-6.687c-1.4 1.114-3.1 2.026-4.8 2.634-2.5.81-5 1.216-7.6 1.115-1.5 0-2.9-.203-4.4-.507-1.3-.304-2.5-.81-3.6-1.62-1.1-.71-1.9-1.723-2.5-2.838-.7-1.317-1-2.735-1-4.254h27.8c.5-2.432.7-4.863.8-7.295-.1-2.735-.7-5.47-1.9-8.003zm-7.6 8.003h-19c.1-1.317.4-2.532 1.1-3.647a8.551 8.551 0 012.4-2.634c1-.71 2-1.317 3.2-1.62 1.2-.406 2.5-.609 3.8-.609 2.9 0 5 .81 6.5 2.33 1.3 1.723 2.1 3.951 2 6.18z" fill="#074666"/><path d="M305.308 52.68c-1-2.027-2.5-3.749-4.3-5.167a16.826 16.826 0 00-5.8-2.634c-4.7-1.216-9.6-1.013-14.2.506-2.4.81-4.7 2.128-6.6 3.85-1.9 1.824-3.4 3.951-4.4 6.484-1.1 2.837-1.7 5.977-1.6 9.016 0 2.938.5 5.876 1.5 8.612 1.8 4.964 5.7 8.915 10.7 10.637 2.8 1.013 5.8 1.418 8.8 1.418 1.8 0 3.6-.1 5.4-.506 1.6-.304 3.2-.71 4.7-1.216 1.3-.506 2.5-1.013 3.7-1.722.9-.507 1.8-1.114 2.6-1.824l-3.3-6.686c-1.4 1.114-3.1 2.026-4.8 2.634-2.5.81-5 1.216-7.6 1.114-1.5 0-2.9-.202-4.4-.506-1.3-.304-2.5-.81-3.6-1.621-1.1-.71-1.9-1.722-2.5-2.837-.7-1.317-1-2.735-1-4.255h27.6c.5-2.431.7-4.863.8-7.294.1-2.735-.5-5.47-1.7-8.003zm-7.6 8.003h-19c.1-1.317.4-2.533 1.1-3.647a8.553 8.553 0 012.4-2.634c1-.71 2-1.317 3.2-1.621 1.2-.405 2.5-.608 3.8-.608 2.9 0 5 .81 6.5 2.33 1.3 1.722 2.1 3.951 2 6.18z" fill="#00ACE1"/><path d="M418.008 53.794h-7.6l3-8.611h4.6v-8.915l10-2.938v11.752h20.2v8.61h-20.2v11.145c0 4.052.7 6.889 2.2 8.712 1.6 1.824 3.9 2.837 6.2 2.736 1.3 0 2.6-.203 3.8-.507 1-.304 2.1-.709 3-1.317.9-.506 1.7-1.114 2.5-1.722l2-1.722 4.7 7.091c-.9 1.115-2.1 2.026-3.3 2.837-1.3.912-2.8 1.621-4.2 2.229-1.5.608-3.1 1.114-4.7 1.52-1.6.405-3.2.506-4.9.506-5.8 0-10.1-1.621-13-4.863-2.9-3.242-4.3-8.409-4.3-15.5V53.794z" fill="#074666"/><path d="M434.008 24.617h14.2v14.285h-14.2V24.617zm-267.7 19.553c-5.9 0-9.6 2.533-12.7 6.18h-.4l-1.2-5.167h-9.1l-4.5 8.611h5.6v47.514h10V81.046h.2c2.2 2.533 6.5 4.56 10.6 4.56 9.7 0 19.6-6.586 19.6-21.073 0-12.461-8.6-20.363-18.1-20.363zm-2.7 33.128c-4.5 0-8.1-3.546-9.2-7.7-.2-.911-.3-1.823-.3-2.836v-4.255c0-.81.2-1.722.3-2.533 1.1-4.457 5.1-7.091 9.4-7.091 6.7 0 10.2 4.964 10.2 12.055.1 7.902-3.8 12.36-10.4 12.36zM124.6 62.477c0-34.4-27.9-62.3-62.3-62.3S0 28.077 0 62.477c0 14.2 4.9 28 13.8 39.1l48.1 49 40-40c3.1-2.6 6-5.5 8.6-8.6l.5-.5h-.1c8.9-11 13.7-24.8 13.7-39zm-17.8 1.7c-1.6 22.5-19.6 40.3-42.1 41.5v-7.5h-4.8v7.5c-22.5-1.2-40.6-19-42.2-41.5h7.7v-4.8h-7.8c.9-23.1 19.2-41.7 42.2-42.9v7.2h4.8v-7.2c23.1 1.2 41.4 19.9 42.2 42.9h-7v4.8h7z" fill="#00ACE1"/><path d="M39.3 50.577l.1 23.7 22.3 10.9-.1-24-22.3-10.6zm42.4 3.5v12l-3.5-1.5-3.3 3.8v-11l-8.9 4.4.1 24 21.8-11.1.1-23.7c-.1 0-6.3 3.1-6.3 3.1zm-40.1-7l22.3 10.2 8.2-3.7-22-10.3-8.5 3.8zm45 .1l-22.5-9.9-7.6 3.3 22.5 10 7.6-3.4zm67.574 72.58c-3.154 0-5.858 1.352-7.511 3.905v-11.867h-2.666v27.865h2.554v-3.906c1.614 2.667 4.356 4.094 7.623 4.094 5.633 0 9.839-4.094 9.839-10.065 0-5.971-4.206-10.026-9.839-10.026zm-.188 17.725c-4.206 0-7.36-3.08-7.36-7.699s3.154-7.698 7.36-7.698c4.169 0 7.361 3.079 7.361 7.698s-3.192 7.699-7.361 7.699zm27.967-17.575v10.365c0 4.506-2.591 7.172-6.722 7.172-3.755 0-5.933-2.14-5.933-6.346v-11.191h-2.666v11.454c0 5.67 3.304 8.487 8.336 8.487 3.155 0 5.708-1.39 7.098-3.793v3.605h2.554v-19.753h-2.667zm13.176 19.941c5.145 0 8.149-2.216 8.149-5.633 0-7.586-12.806-3.568-12.806-8.9 0-1.878 1.577-3.268 5.145-3.268 2.028 0 4.093.489 5.821 1.69l1.164-2.14c-1.652-1.127-4.431-1.84-6.985-1.84-5.032 0-7.811 2.403-7.811 5.633 0 7.811 12.806 3.755 12.806 8.9 0 1.952-1.54 3.229-5.295 3.229-2.779 0-5.446-.976-7.023-2.215l-1.202 2.103c1.615 1.389 4.77 2.441 8.037 2.441zm12.552-24.26c1.127 0 1.953-.863 1.953-1.952 0-1.014-.864-1.841-1.953-1.841s-1.952.864-1.952 1.878c0 1.052.863 1.915 1.952 1.915zm-1.352 24.072h2.667v-19.753h-2.667v19.753zm17.145-19.903c-3.417 0-6.083 1.389-7.51 3.793v-3.643h-2.554v19.753h2.666v-10.365c0-4.506 2.667-7.135 6.91-7.135 3.756 0 5.934 2.141 5.934 6.309v11.191h2.666v-11.454c0-5.67-3.305-8.449-8.112-8.449zm29.959 10.026c0-5.933-4.018-10.026-9.576-10.026-5.558 0-9.651 4.168-9.651 10.026 0 5.859 4.205 10.065 10.364 10.065 3.117 0 5.858-1.127 7.623-3.23l-1.502-1.727c-1.502 1.727-3.642 2.591-6.046 2.591-4.318 0-7.473-2.742-7.773-6.872h16.523c0-.301.038-.601.038-.827zm-9.576-7.736c3.868 0 6.684 2.704 7.022 6.572h-14.007c.338-3.868 3.154-6.572 6.985-6.572zm18.925 17.801c5.145 0 8.149-2.216 8.149-5.633 0-7.586-12.805-3.568-12.805-8.9 0-1.878 1.577-3.268 5.144-3.268 2.028 0 4.094.489 5.821 1.69l1.164-2.14c-1.652-1.127-4.431-1.84-6.985-1.84-5.032 0-7.811 2.403-7.811 5.633 0 7.811 12.806 3.755 12.806 8.9 0 1.952-1.54 3.229-5.295 3.229-2.779 0-5.445-.976-7.023-2.215l-1.201 2.103c1.615 1.389 4.769 2.441 8.036 2.441zm17.12 0c5.144 0 8.149-2.216 8.149-5.633 0-7.586-12.806-3.568-12.806-8.9 0-1.878 1.577-3.268 5.145-3.268 2.028 0 4.093.489 5.821 1.69l1.164-2.14c-1.653-1.127-4.432-1.84-6.985-1.84-5.032 0-7.811 2.403-7.811 5.633 0 7.811 12.805 3.755 12.805 8.9 0 1.952-1.539 3.229-5.295 3.229-2.779 0-5.445-.976-7.022-2.215l-1.202 2.103c1.615 1.389 4.769 2.441 8.037 2.441z" fill="#074666"/></svg>